<svg xmlns="http://www.w3.org/2000/svg" width="8750" height="6250" viewBox="0 0 8750 6250">
  <defs>
    <style>
      .cls-1 {
        fill: #fff;
      }

      .cls-2 {
        fill: none;
        stroke: #132e35;
        stroke-width: 646.15px;
      }

      .cls-3 {
        fill: #132e35;
        fill-rule: evenodd;
      }
    </style>
  </defs>
  <rect class="cls-1" x="-15" y="-18" width="8788" height="6268"/>
  <circle class="cls-2" cx="4381" cy="3125" r="2454"/>
  <path class="cls-3" d="M3543,3133l777,249s52.29,34.67,127,6l767-241,117,354s36.11,99.93-21,183-646.89,238.64-856,455c-64.68,71.92-143.44,21.36-168,0s-611.46-373.28-772-420c-150.09-58.9-79.26-269.3-71-319Zm837-1060L2695,2616s-101.5,8.01-38,105l705,218s79.93,14.71,123-21,501.53-266.9,811-250c68.98,21.72,36.76,90.74-9,98-26.4,2.14-507.92,94.54-657,196-40.54,28.38-24.3,39.05-12,45l715,241s47.11,17.2,101-2l1662-538s59.57-26.38,9-97Z"/>
</svg>
